<svg xmlns="http://www.w3.org/2000/svg" width="1024" height="1024" viewBox="0 0 1024 1024">
  <rect width="1024" height="1024" rx="220" fill="#07111f"/>
  <circle cx="300" cy="278" r="190" fill="#34d399" opacity="0.22"/>
  <circle cx="734" cy="746" r="230" fill="#38bdf8" opacity="0.2"/>
  <path fill="#34d399" d="M326 708h372c31 0 56 25 56 56s-25 56-56 56H326c-31 0-56-25-56-56s25-56 56-56Z"/>
  <path fill="#38bdf8" d="M326 514h256c31 0 56 25 56 56s-25 56-56 56H326c-31 0-56-25-56-56s25-56 56-56Z"/>
  <path fill="#fbbf24" d="M326 320h132c31 0 56 25 56 56s-25 56-56 56H326c-31 0-56-25-56-56s25-56 56-56Z"/>
  <path fill="#e2e8f0" d="M694 276c14-25 50-25 64 0l37 67 75 14c28 5 39 40 20 61l-52 56 9 76c3 28-26 50-52 38l-69-32-69 32c-26 12-55-10-52-38l9-76-52-56c-19-21-8-56 20-61l75-14 37-67Z"/>
</svg>
